<svg width="39" height="39" viewBox="0 0 39 39" fill="none" xmlns="http://www.w3.org/2000/svg">
<g clip-path="url(#clip0_14_179)">
<rect x="0.5" y="0.5" width="38" height="38" rx="19" fill="white"/>
<g clip-path="url(#clip1_14_179)">
<path d="M19.5 2.73535C15.5077 2.72029 11.6411 4.13042 8.59584 6.71204C5.55057 9.29366 3.52654 12.8773 2.88792 16.8182C2.24929 20.7591 3.03799 24.7985 5.11211 28.2097C7.18623 31.6209 10.4096 34.18 14.2023 35.4265C15.0406 35.5606 15.3088 35.0409 15.3088 34.5883V31.7551C10.665 32.7609 9.67585 29.5589 9.67585 29.5589C9.36277 28.5177 8.68405 27.6246 7.76468 27.0442C6.23909 26.0048 7.88203 26.0383 7.88203 26.0383C8.40828 26.1064 8.91232 26.2925 9.35649 26.5828C9.80067 26.8731 10.1735 27.2601 10.447 27.7148C10.9127 28.5428 11.6865 29.1535 12.6001 29.4141C13.5136 29.6747 14.4931 29.564 15.3256 29.1062C15.4019 28.2564 15.776 27.4608 16.3817 26.8598C12.7941 26.4909 8.80409 25.0492 8.80409 18.6618C8.7556 16.9878 9.35631 15.3599 10.4806 14.1186C9.97014 12.6759 10.0301 11.0927 10.6482 9.6927C10.6482 9.6927 12.0564 9.24006 15.2585 11.3692C18.0039 10.6312 20.8955 10.6312 23.6409 11.3692C26.8429 9.20653 28.2511 9.6927 28.2511 9.6927C28.8692 11.0927 28.9292 12.6759 28.4188 14.1186C29.543 15.3599 30.1438 16.9878 30.0953 18.6618C30.0953 25.0659 26.1723 26.4742 22.4338 26.8933C22.8364 27.298 23.1479 27.7841 23.3474 28.319C23.5469 28.8539 23.6298 29.4252 23.5906 29.9948V34.5883C23.5906 35.0409 23.8588 35.5774 24.7138 35.4265C28.4996 34.1822 31.7183 31.63 33.7929 28.2276C35.8674 24.8251 36.6622 20.795 36.0345 16.8597C35.4069 12.9244 33.398 9.34133 30.368 6.753C27.3379 4.16466 23.485 2.74032 19.5 2.73535Z" fill="#D96901"/>
</g>
</g>
<defs>
<clipPath id="clip0_14_179">
<rect x="0.5" y="0.5" width="38" height="38" rx="19" fill="white"/>
</clipPath>
<clipPath id="clip1_14_179">
<rect width="38" height="38" fill="white" transform="translate(0.5 0.5)"/>
</clipPath>
</defs>
</svg>
