<svg width="39" height="39" viewBox="0 0 39 39" fill="none" xmlns="http://www.w3.org/2000/svg">
<rect x="0.5" y="0.5" width="38" height="38" rx="19" fill="white"/>
<g clip-path="url(#clip0_14_167)">
<path d="M19.5 2.5C10.1102 2.5 2.5 10.1102 2.5 19.5C2.5 28.8898 10.1102 36.5 19.5 36.5C28.8898 36.5 36.5 28.8898 36.5 19.5C36.5 10.1102 28.8898 2.5 19.5 2.5ZM14.7453 26.6121H11.4316V16.007H14.7453V26.6121ZM12.9988 14.6789H12.9723C11.7703 14.6789 10.9934 13.8688 10.9934 12.8395C10.9934 11.7902 11.7969 11 13.0187 11C14.2406 11 14.991 11.7902 15.0176 12.8395C15.0242 13.8621 14.2473 14.6789 12.9988 14.6789ZM28 26.6121H24.2414V21.127C24.2414 19.6926 23.657 18.7098 22.3621 18.7098C21.3727 18.7098 20.8215 19.3738 20.5691 20.0113C20.4762 20.2371 20.4895 20.5559 20.4895 20.8812V26.6121H16.7641C16.7641 26.6121 16.8105 16.8902 16.7641 16.007H20.4895V17.6738C20.7086 16.9434 21.8973 15.9074 23.7965 15.9074C26.1539 15.9074 28 17.4348 28 20.7152V26.6121Z" fill="#D96901"/>
</g>
<defs>
<clipPath id="clip0_14_167">
<rect width="34" height="34" fill="white" transform="translate(2.5 2.5)"/>
</clipPath>
</defs>
</svg>
