<svg width="39" height="39" viewBox="0 0 39 39" fill="none" xmlns="http://www.w3.org/2000/svg">
<rect x="0.5" y="0.5" width="38" height="38" rx="19" fill="white"/>
<g clip-path="url(#clip0_14_175)">
<path d="M19.5 2.5C16.1378 2.5 12.8509 3.49703 10.0553 5.36501C7.25968 7.23299 5.08075 9.88802 3.79406 12.9944C2.50737 16.1006 2.17071 19.5189 2.82665 22.8165C3.4826 26.1143 5.1017 29.1432 7.47919 31.5209C9.85669 33.8983 12.8858 35.5174 16.1835 36.1734C19.4811 36.8293 22.8994 36.4925 26.0057 35.2058C29.112 33.9192 31.767 31.7404 33.6351 28.9447C35.503 26.1491 36.5 22.8624 36.5 19.5C36.5 14.9913 34.7088 10.6673 31.5209 7.47919C28.3328 4.29105 24.0086 2.5 19.5 2.5ZM27.8513 14.145L25.0675 27.2987C24.855 28.2337 24.3025 28.4462 23.5163 28.0212L19.2663 24.8762L17.1413 26.8525C17.0412 26.9832 16.9126 27.0894 16.7653 27.1632C16.6181 27.2367 16.4559 27.2758 16.2913 27.2775L16.5888 23.0275L24.4513 15.9087C24.8125 15.6112 24.4513 15.4412 23.9412 15.7387L14.2938 21.795L10.0437 20.4775C9.13 20.2012 9.10875 19.5637 10.235 19.1387L26.6188 12.7637C27.4263 12.53 28.1063 12.9975 27.8513 14.145Z" fill="#D96901"/>
</g>
<defs>
<clipPath id="clip0_14_175">
<rect width="34" height="34" fill="white" transform="translate(2.5 2.5)"/>
</clipPath>
</defs>
</svg>
