<svg width="39" height="39" viewBox="0 0 39 39" fill="none" xmlns="http://www.w3.org/2000/svg">
<rect x="0.5" y="0.5" width="38" height="38" rx="19" fill="white"/>
<g clip-path="url(#clip0_14_171)">
<path d="M19.5 2.5C10.1102 2.5 2.5 10.1102 2.5 19.5C2.5 28.8898 10.1102 36.5 19.5 36.5C28.8898 36.5 36.5 28.8898 36.5 19.5C36.5 10.1102 28.8898 2.5 19.5 2.5ZM26.2867 16.857C26.2934 17.0031 26.2934 17.1559 26.2934 17.3086C26.2934 21.9238 22.7805 27.2496 16.3523 27.2496C14.3801 27.2496 12.5406 26.6719 11 25.6824C11.2723 25.7156 11.5512 25.7289 11.8367 25.7289C13.4703 25.7289 14.9777 25.1711 16.173 24.2348C14.6457 24.2082 13.3508 23.1988 12.9125 21.8109C13.125 21.8508 13.3441 21.8707 13.5699 21.8707C13.8887 21.8707 14.2008 21.8309 14.493 21.7445C12.8926 21.4258 11.6906 20.0113 11.6906 18.318V18.2781C12.1621 18.5371 12.7 18.6965 13.2711 18.7164C12.3348 18.0922 11.7172 17.0164 11.7172 15.8078C11.7172 15.1703 11.8898 14.566 12.1887 14.048C13.9152 16.1664 16.4852 17.5543 19.3871 17.7004C19.3273 17.448 19.2941 17.1824 19.2941 16.9035C19.2941 14.9777 20.8613 13.4105 22.7871 13.4105C23.7898 13.4105 24.6996 13.8355 25.3371 14.5129C26.134 14.3535 26.8777 14.068 27.5551 13.6629C27.2961 14.4797 26.7383 15.1637 26.0211 15.5953C26.725 15.509 27.4023 15.323 28.0266 15.0441C27.5617 15.748 26.9707 16.359 26.2867 16.857Z" fill="#D96901"/>
</g>
<defs>
<clipPath id="clip0_14_171">
<rect width="34" height="34" fill="white" transform="translate(2.5 2.5)"/>
</clipPath>
</defs>
</svg>
